<mxfile host="www.draw.io" modified="2019-12-13T19:33:28.335Z" agent="Mozilla/5.0 (Windows NT 10.0; Win64; x64) AppleWebKit/537.36 (KHTML, like Gecko) Chrome/78.0.3904.108 Safari/537.36" etag="Q8T28rqDHlvURGH9lKAu" version="12.4.1" type="github" pages="1">
  <diagram id="ziBPFMb3bnFHrPgofVit" name="Page-1">
    <mxGraphModel dx="868" dy="450" grid="1" gridSize="10" guides="1" tooltips="1" connect="1" arrows="1" fold="1" page="1" pageScale="1" pageWidth="827" pageHeight="1169" math="0" shadow="0">
      <root>
        <mxCell id="0"/>
        <mxCell id="1" parent="0"/>
        <mxCell id="CFIElQ1iMf3W2-nmC-jz-1" value="" style="whiteSpace=wrap;html=1;aspect=fixed;" parent="1" vertex="1">
          <mxGeometry x="151" y="15" width="558" height="558" as="geometry"/>
        </mxCell>
        <mxCell id="CFIElQ1iMf3W2-nmC-jz-5" value="&lt;font style=&quot;font-size: 12px&quot;&gt;error&lt;/font&gt;" style="ellipse;whiteSpace=wrap;html=1;fillColor=#dae8fc;strokeColor=#6c8ebf;" parent="1" vertex="1">
          <mxGeometry x="460" y="50" width="120" height="30" as="geometry"/>
        </mxCell>
        <mxCell id="CFIElQ1iMf3W2-nmC-jz-6" value="login" style="ellipse;whiteSpace=wrap;html=1;fillColor=#dae8fc;strokeColor=#6c8ebf;" parent="1" vertex="1">
          <mxGeometry x="260" y="80" width="120" height="30" as="geometry"/>
        </mxCell>
        <mxCell id="CFIElQ1iMf3W2-nmC-jz-59" style="edgeStyle=orthogonalEdgeStyle;rounded=0;orthogonalLoop=1;jettySize=auto;html=1;entryX=0;entryY=0.5;entryDx=0;entryDy=0;" parent="1" target="CFIElQ1iMf3W2-nmC-jz-30" edge="1">
          <mxGeometry relative="1" as="geometry">
            <mxPoint x="60" y="220" as="sourcePoint"/>
            <Array as="points">
              <mxPoint x="60" y="210"/>
              <mxPoint x="163" y="210"/>
              <mxPoint x="163" y="193"/>
            </Array>
          </mxGeometry>
        </mxCell>
        <mxCell id="CFIElQ1iMf3W2-nmC-jz-62" style="edgeStyle=orthogonalEdgeStyle;rounded=0;orthogonalLoop=1;jettySize=auto;html=1;" parent="1" source="CFIElQ1iMf3W2-nmC-jz-7" target="CFIElQ1iMf3W2-nmC-jz-31" edge="1">
          <mxGeometry relative="1" as="geometry"/>
        </mxCell>
        <mxCell id="CFIElQ1iMf3W2-nmC-jz-63" style="edgeStyle=orthogonalEdgeStyle;rounded=0;orthogonalLoop=1;jettySize=auto;html=1;entryX=0;entryY=0.5;entryDx=0;entryDy=0;" parent="1" source="CFIElQ1iMf3W2-nmC-jz-7" target="CFIElQ1iMf3W2-nmC-jz-37" edge="1">
          <mxGeometry relative="1" as="geometry"/>
        </mxCell>
        <mxCell id="CFIElQ1iMf3W2-nmC-jz-64" style="edgeStyle=orthogonalEdgeStyle;rounded=0;orthogonalLoop=1;jettySize=auto;html=1;entryX=0;entryY=0.5;entryDx=0;entryDy=0;" parent="1" source="CFIElQ1iMf3W2-nmC-jz-7" target="CFIElQ1iMf3W2-nmC-jz-41" edge="1">
          <mxGeometry relative="1" as="geometry"/>
        </mxCell>
        <mxCell id="CFIElQ1iMf3W2-nmC-jz-65" style="edgeStyle=orthogonalEdgeStyle;rounded=0;orthogonalLoop=1;jettySize=auto;html=1;entryX=0;entryY=0.5;entryDx=0;entryDy=0;" parent="1" source="CFIElQ1iMf3W2-nmC-jz-7" target="CFIElQ1iMf3W2-nmC-jz-43" edge="1">
          <mxGeometry relative="1" as="geometry"/>
        </mxCell>
        <mxCell id="CFIElQ1iMf3W2-nmC-jz-66" style="edgeStyle=orthogonalEdgeStyle;rounded=0;orthogonalLoop=1;jettySize=auto;html=1;entryX=0;entryY=0.5;entryDx=0;entryDy=0;" parent="1" source="CFIElQ1iMf3W2-nmC-jz-7" target="CFIElQ1iMf3W2-nmC-jz-44" edge="1">
          <mxGeometry relative="1" as="geometry"/>
        </mxCell>
        <mxCell id="CFIElQ1iMf3W2-nmC-jz-67" style="edgeStyle=orthogonalEdgeStyle;rounded=0;orthogonalLoop=1;jettySize=auto;html=1;entryX=0;entryY=0.5;entryDx=0;entryDy=0;" parent="1" source="CFIElQ1iMf3W2-nmC-jz-7" target="CFIElQ1iMf3W2-nmC-jz-53" edge="1">
          <mxGeometry relative="1" as="geometry"/>
        </mxCell>
        <mxCell id="CFIElQ1iMf3W2-nmC-jz-68" style="edgeStyle=orthogonalEdgeStyle;rounded=0;orthogonalLoop=1;jettySize=auto;html=1;entryX=0;entryY=0.5;entryDx=0;entryDy=0;" parent="1" source="CFIElQ1iMf3W2-nmC-jz-7" target="CFIElQ1iMf3W2-nmC-jz-45" edge="1">
          <mxGeometry relative="1" as="geometry">
            <Array as="points">
              <mxPoint x="200" y="216"/>
              <mxPoint x="200" y="545"/>
            </Array>
          </mxGeometry>
        </mxCell>
        <mxCell id="CFIElQ1iMf3W2-nmC-jz-7" value="Actor" style="shape=umlActor;verticalLabelPosition=bottom;labelBackgroundColor=#ffffff;verticalAlign=top;html=1;outlineConnect=0;" parent="1" vertex="1">
          <mxGeometry x="45" y="186" width="30" height="60" as="geometry"/>
        </mxCell>
        <mxCell id="CFIElQ1iMf3W2-nmC-jz-8" value="customer" style="text;html=1;strokeColor=none;fillColor=none;align=center;verticalAlign=middle;whiteSpace=wrap;rounded=0;" parent="1" vertex="1">
          <mxGeometry x="35" y="160" width="40" height="20" as="geometry"/>
        </mxCell>
        <mxCell id="CFIElQ1iMf3W2-nmC-jz-9" value="online bank application" style="text;html=1;strokeColor=none;fillColor=none;align=center;verticalAlign=middle;whiteSpace=wrap;rounded=0;" parent="1" vertex="1">
          <mxGeometry x="365" y="20" width="150" height="20" as="geometry"/>
        </mxCell>
        <mxCell id="CFIElQ1iMf3W2-nmC-jz-10" style="edgeStyle=orthogonalEdgeStyle;rounded=0;orthogonalLoop=1;jettySize=auto;html=1;exitX=0.5;exitY=1;exitDx=0;exitDy=0;" parent="1" source="CFIElQ1iMf3W2-nmC-jz-1" target="CFIElQ1iMf3W2-nmC-jz-1" edge="1">
          <mxGeometry relative="1" as="geometry"/>
        </mxCell>
        <mxCell id="CFIElQ1iMf3W2-nmC-jz-12" value="" style="endArrow=none;dashed=1;html=1;entryX=0.033;entryY=0.767;entryDx=0;entryDy=0;entryPerimeter=0;" parent="1" source="CFIElQ1iMf3W2-nmC-jz-6" target="CFIElQ1iMf3W2-nmC-jz-5" edge="1">
          <mxGeometry width="50" height="50" relative="1" as="geometry">
            <mxPoint x="400" y="110" as="sourcePoint"/>
            <mxPoint x="450" y="70" as="targetPoint"/>
          </mxGeometry>
        </mxCell>
        <mxCell id="CFIElQ1iMf3W2-nmC-jz-13" value="extends" style="text;html=1;strokeColor=none;fillColor=none;align=center;verticalAlign=middle;whiteSpace=wrap;rounded=0;" parent="1" vertex="1">
          <mxGeometry x="393" y="55" width="40" height="20" as="geometry"/>
        </mxCell>
        <mxCell id="CFIElQ1iMf3W2-nmC-jz-14" value="" style="html=1;shadow=0;dashed=0;align=center;verticalAlign=middle;shape=mxgraph.arrows2.arrow;dy=0.6;dx=40;notch=0;" parent="1" vertex="1">
          <mxGeometry x="456" y="65" width="10" height="15" as="geometry"/>
        </mxCell>
        <mxCell id="CFIElQ1iMf3W2-nmC-jz-20" value="register" style="ellipse;whiteSpace=wrap;html=1;" parent="1" vertex="1">
          <mxGeometry x="258" y="130" width="107" height="30" as="geometry"/>
        </mxCell>
        <mxCell id="CFIElQ1iMf3W2-nmC-jz-21" value="" style="endArrow=classic;html=1;exitX=0.5;exitY=0;exitDx=0;exitDy=0;" parent="1" source="CFIElQ1iMf3W2-nmC-jz-20" edge="1">
          <mxGeometry width="50" height="50" relative="1" as="geometry">
            <mxPoint x="308" y="219" as="sourcePoint"/>
            <mxPoint x="308" y="110" as="targetPoint"/>
            <Array as="points">
              <mxPoint x="310" y="110"/>
            </Array>
          </mxGeometry>
        </mxCell>
        <mxCell id="CFIElQ1iMf3W2-nmC-jz-22" value="verfiy sms" style="ellipse;whiteSpace=wrap;html=1;fillColor=#dae8fc;strokeColor=#6c8ebf;" parent="1" vertex="1">
          <mxGeometry x="460" y="95" width="120" height="25" as="geometry"/>
        </mxCell>
        <mxCell id="CFIElQ1iMf3W2-nmC-jz-23" value="" style="endArrow=none;dashed=1;html=1;entryX=0.917;entryY=0.667;entryDx=0;entryDy=0;entryPerimeter=0;" parent="1" source="CFIElQ1iMf3W2-nmC-jz-22" target="CFIElQ1iMf3W2-nmC-jz-6" edge="1">
          <mxGeometry width="50" height="50" relative="1" as="geometry">
            <mxPoint x="380" y="150" as="sourcePoint"/>
            <mxPoint x="430" y="100" as="targetPoint"/>
          </mxGeometry>
        </mxCell>
        <mxCell id="CFIElQ1iMf3W2-nmC-jz-24" value="include" style="text;html=1;strokeColor=none;fillColor=none;align=center;verticalAlign=middle;whiteSpace=wrap;rounded=0;" parent="1" vertex="1">
          <mxGeometry x="393" y="100" width="40" height="20" as="geometry"/>
        </mxCell>
        <mxCell id="CFIElQ1iMf3W2-nmC-jz-29" value="" style="html=1;shadow=0;dashed=0;align=center;verticalAlign=middle;shape=mxgraph.arrows2.arrow;dy=0.6;dx=40;flipH=1;notch=0;" parent="1" vertex="1">
          <mxGeometry x="369" y="93" width="10" height="15" as="geometry"/>
        </mxCell>
        <mxCell id="CFIElQ1iMf3W2-nmC-jz-30" value="transfers" style="ellipse;whiteSpace=wrap;html=1;fillColor=#dae8fc;strokeColor=#6c8ebf;" parent="1" vertex="1">
          <mxGeometry x="265" y="175" width="110" height="35" as="geometry"/>
        </mxCell>
        <mxCell id="CFIElQ1iMf3W2-nmC-jz-31" value="check balance&amp;nbsp;" style="ellipse;whiteSpace=wrap;html=1;fillColor=#dae8fc;strokeColor=#6c8ebf;" parent="1" vertex="1">
          <mxGeometry x="270" y="240" width="110" height="30" as="geometry"/>
        </mxCell>
        <mxCell id="CFIElQ1iMf3W2-nmC-jz-32" value="verfiy balance" style="ellipse;whiteSpace=wrap;html=1;fillColor=#dae8fc;strokeColor=#6c8ebf;" parent="1" vertex="1">
          <mxGeometry x="456" y="226" width="70" height="40" as="geometry"/>
        </mxCell>
        <mxCell id="CFIElQ1iMf3W2-nmC-jz-34" value="" style="endArrow=none;dashed=1;html=1;exitX=0.991;exitY=0.829;exitDx=0;exitDy=0;entryX=0;entryY=1;entryDx=0;entryDy=0;exitPerimeter=0;" parent="1" source="CFIElQ1iMf3W2-nmC-jz-30" target="CFIElQ1iMf3W2-nmC-jz-32" edge="1">
          <mxGeometry width="50" height="50" relative="1" as="geometry">
            <mxPoint x="370" y="290" as="sourcePoint"/>
            <mxPoint x="420" y="240" as="targetPoint"/>
            <Array as="points">
              <mxPoint x="420" y="240"/>
            </Array>
          </mxGeometry>
        </mxCell>
        <mxCell id="CFIElQ1iMf3W2-nmC-jz-35" value="" style="html=1;shadow=0;dashed=0;align=center;verticalAlign=middle;shape=mxgraph.arrows2.arrow;dy=0.6;dx=40;notch=0;rotation=120;direction=south;" parent="1" vertex="1">
          <mxGeometry x="361.5" y="194.5" width="20" height="11" as="geometry"/>
        </mxCell>
        <mxCell id="CFIElQ1iMf3W2-nmC-jz-36" value="include" style="text;html=1;strokeColor=none;fillColor=none;align=center;verticalAlign=middle;whiteSpace=wrap;rounded=0;rotation=30;" parent="1" vertex="1">
          <mxGeometry x="400" y="206" width="40" height="20" as="geometry"/>
        </mxCell>
        <mxCell id="CFIElQ1iMf3W2-nmC-jz-37" value="payment" style="ellipse;whiteSpace=wrap;html=1;fillColor=#dae8fc;strokeColor=#6c8ebf;" parent="1" vertex="1">
          <mxGeometry x="265" y="290" width="115" height="30" as="geometry"/>
        </mxCell>
        <mxCell id="CFIElQ1iMf3W2-nmC-jz-39" value="" style="endArrow=classic;html=1;" parent="1" source="CFIElQ1iMf3W2-nmC-jz-40" edge="1">
          <mxGeometry width="50" height="50" relative="1" as="geometry">
            <mxPoint x="250" y="370" as="sourcePoint"/>
            <mxPoint x="300" y="320" as="targetPoint"/>
          </mxGeometry>
        </mxCell>
        <mxCell id="CFIElQ1iMf3W2-nmC-jz-41" value="investment" style="ellipse;whiteSpace=wrap;html=1;fillColor=#dae8fc;strokeColor=#6c8ebf;" parent="1" vertex="1">
          <mxGeometry x="265" y="380" width="115" height="30" as="geometry"/>
        </mxCell>
        <mxCell id="CFIElQ1iMf3W2-nmC-jz-40" value="bills" style="ellipse;whiteSpace=wrap;html=1;" parent="1" vertex="1">
          <mxGeometry x="210" y="330" width="80" height="40" as="geometry"/>
        </mxCell>
        <mxCell id="CFIElQ1iMf3W2-nmC-jz-43" value="finance" style="ellipse;whiteSpace=wrap;html=1;fillColor=#dae8fc;strokeColor=#6c8ebf;" parent="1" vertex="1">
          <mxGeometry x="267.5" y="420" width="110" height="30" as="geometry"/>
        </mxCell>
        <mxCell id="CFIElQ1iMf3W2-nmC-jz-44" value="cards" style="ellipse;whiteSpace=wrap;html=1;fillColor=#dae8fc;strokeColor=#6c8ebf;" parent="1" vertex="1">
          <mxGeometry x="265" y="457.5" width="120" height="30" as="geometry"/>
        </mxCell>
        <mxCell id="CFIElQ1iMf3W2-nmC-jz-45" value="logout" style="ellipse;whiteSpace=wrap;html=1;fillColor=#dae8fc;strokeColor=#6c8ebf;" parent="1" vertex="1">
          <mxGeometry x="396" y="530" width="120" height="30" as="geometry"/>
        </mxCell>
        <mxCell id="CFIElQ1iMf3W2-nmC-jz-46" value="E market" style="ellipse;whiteSpace=wrap;html=1;" parent="1" vertex="1">
          <mxGeometry x="309" y="335" width="84" height="35" as="geometry"/>
        </mxCell>
        <mxCell id="CFIElQ1iMf3W2-nmC-jz-47" value="" style="endArrow=classic;html=1;entryX=0.696;entryY=0.967;entryDx=0;entryDy=0;entryPerimeter=0;" parent="1" source="CFIElQ1iMf3W2-nmC-jz-46" target="CFIElQ1iMf3W2-nmC-jz-37" edge="1">
          <mxGeometry width="50" height="50" relative="1" as="geometry">
            <mxPoint x="330" y="360" as="sourcePoint"/>
            <mxPoint x="380" y="310" as="targetPoint"/>
          </mxGeometry>
        </mxCell>
        <mxCell id="CFIElQ1iMf3W2-nmC-jz-50" value="" style="endArrow=none;dashed=1;html=1;entryX=0.286;entryY=0.925;entryDx=0;entryDy=0;entryPerimeter=0;exitX=1;exitY=0;exitDx=0;exitDy=0;" parent="1" source="CFIElQ1iMf3W2-nmC-jz-37" target="CFIElQ1iMf3W2-nmC-jz-32" edge="1">
          <mxGeometry width="50" height="50" relative="1" as="geometry">
            <mxPoint x="310" y="320" as="sourcePoint"/>
            <mxPoint x="360" y="270" as="targetPoint"/>
          </mxGeometry>
        </mxCell>
        <mxCell id="CFIElQ1iMf3W2-nmC-jz-51" value="include" style="text;html=1;strokeColor=none;fillColor=none;align=center;verticalAlign=middle;whiteSpace=wrap;rounded=0;" parent="1" vertex="1">
          <mxGeometry x="385" y="260" width="40" height="20" as="geometry"/>
        </mxCell>
        <mxCell id="CFIElQ1iMf3W2-nmC-jz-52" value="" style="html=1;shadow=0;dashed=0;align=center;verticalAlign=middle;shape=mxgraph.arrows2.arrow;dy=0.6;dx=40;notch=0;rotation=135;" parent="1" vertex="1">
          <mxGeometry x="364" y="282" width="11" height="20" as="geometry"/>
        </mxCell>
        <mxCell id="CFIElQ1iMf3W2-nmC-jz-53" value="summary" style="ellipse;whiteSpace=wrap;html=1;fillColor=#dae8fc;strokeColor=#6c8ebf;" parent="1" vertex="1">
          <mxGeometry x="295" y="495" width="95" height="35" as="geometry"/>
        </mxCell>
        <mxCell id="CFIElQ1iMf3W2-nmC-jz-69" style="edgeStyle=orthogonalEdgeStyle;rounded=0;orthogonalLoop=1;jettySize=auto;html=1;entryX=1;entryY=0.5;entryDx=0;entryDy=0;" parent="1" source="CFIElQ1iMf3W2-nmC-jz-54" target="CFIElQ1iMf3W2-nmC-jz-30" edge="1">
          <mxGeometry relative="1" as="geometry"/>
        </mxCell>
        <mxCell id="CFIElQ1iMf3W2-nmC-jz-70" style="edgeStyle=orthogonalEdgeStyle;rounded=0;orthogonalLoop=1;jettySize=auto;html=1;entryX=1;entryY=0.5;entryDx=0;entryDy=0;" parent="1" source="CFIElQ1iMf3W2-nmC-jz-54" target="CFIElQ1iMf3W2-nmC-jz-37" edge="1">
          <mxGeometry relative="1" as="geometry"/>
        </mxCell>
        <mxCell id="CFIElQ1iMf3W2-nmC-jz-71" style="edgeStyle=orthogonalEdgeStyle;rounded=0;orthogonalLoop=1;jettySize=auto;html=1;entryX=1;entryY=0.5;entryDx=0;entryDy=0;" parent="1" source="CFIElQ1iMf3W2-nmC-jz-54" target="CFIElQ1iMf3W2-nmC-jz-41" edge="1">
          <mxGeometry relative="1" as="geometry"/>
        </mxCell>
        <mxCell id="CFIElQ1iMf3W2-nmC-jz-72" style="edgeStyle=orthogonalEdgeStyle;rounded=0;orthogonalLoop=1;jettySize=auto;html=1;entryX=1;entryY=0.5;entryDx=0;entryDy=0;" parent="1" source="CFIElQ1iMf3W2-nmC-jz-54" target="CFIElQ1iMf3W2-nmC-jz-43" edge="1">
          <mxGeometry relative="1" as="geometry"/>
        </mxCell>
        <mxCell id="CFIElQ1iMf3W2-nmC-jz-74" style="edgeStyle=orthogonalEdgeStyle;rounded=0;orthogonalLoop=1;jettySize=auto;html=1;entryX=1;entryY=0.5;entryDx=0;entryDy=0;" parent="1" source="CFIElQ1iMf3W2-nmC-jz-54" target="CFIElQ1iMf3W2-nmC-jz-53" edge="1">
          <mxGeometry relative="1" as="geometry"/>
        </mxCell>
        <mxCell id="CFIElQ1iMf3W2-nmC-jz-54" value="Actor" style="shape=umlActor;verticalLabelPosition=bottom;labelBackgroundColor=#ffffff;verticalAlign=top;html=1;outlineConnect=0;" parent="1" vertex="1">
          <mxGeometry x="750" y="200" width="30" height="60" as="geometry"/>
        </mxCell>
        <mxCell id="CFIElQ1iMf3W2-nmC-jz-55" value="system" style="text;html=1;strokeColor=none;fillColor=none;align=center;verticalAlign=middle;whiteSpace=wrap;rounded=0;" parent="1" vertex="1">
          <mxGeometry x="745" y="155" width="40" height="20" as="geometry"/>
        </mxCell>
        <mxCell id="CFIElQ1iMf3W2-nmC-jz-57" value="" style="endArrow=classic;html=1;entryX=0;entryY=0.5;entryDx=0;entryDy=0;" parent="1" target="CFIElQ1iMf3W2-nmC-jz-6" edge="1">
          <mxGeometry width="50" height="50" relative="1" as="geometry">
            <mxPoint x="70" y="211" as="sourcePoint"/>
            <mxPoint x="140.71067811865476" y="220" as="targetPoint"/>
            <Array as="points">
              <mxPoint x="80" y="200"/>
            </Array>
          </mxGeometry>
        </mxCell>
      </root>
    </mxGraphModel>
  </diagram>
</mxfile>
